Normalized EMG Linear Envelopes
nRows=59
nColumns=17

endheader
time	        VM	        VL	        RF	       GRA	        TA	   ADDLONG	   SEMIMEM	      BFLH	        GM	        GL	       TFL	   GLUTMAX	   GLUTMED	      PIRI	    OBTINT	        QF	
2.51	  0.000711	  0.000000	  0.008330	  0.105878	  0.036723	  0.031540	  0.354514	  0.219850	  0.197393	  0.057678	  0.026898	  0.644020	  0.554338	  0.361150	  0.880687	  0.319161	
2.5105	  0.000802	  0.000000	  0.008386	  0.106093	  0.038214	  0.031706	  0.356790	  0.221615	  0.200058	  0.058516	  0.026927	  0.647786	  0.560072	  0.361209	  0.886093	  0.317819	
2.511	  0.000903	  0.000000	  0.008445	  0.106315	  0.039743	  0.031872	  0.359058	  0.223401	  0.202728	  0.059355	  0.026952	  0.651493	  0.565790	  0.361232	  0.891475	  0.316444	
2.5115	  0.001012	  0.000000	  0.008505	  0.106543	  0.041312	  0.032039	  0.361320	  0.225206	  0.205402	  0.060193	  0.026976	  0.655137	  0.571485	  0.361219	  0.896836	  0.315036	
2.512	  0.001131	  0.000000	  0.008567	  0.106777	  0.042919	  0.032207	  0.363574	  0.227032	  0.208079	  0.061031	  0.026996	  0.658716	  0.577156	  0.361169	  0.902177	  0.313596	
2.5125	  0.001259	  0.000000	  0.008631	  0.107018	  0.044566	  0.032375	  0.365820	  0.228880	  0.210758	  0.061868	  0.027014	  0.662227	  0.582798	  0.361084	  0.907500	  0.312125	
2.513	  0.001397	  0.000000	  0.008696	  0.107266	  0.046253	  0.032544	  0.368058	  0.230749	  0.213439	  0.062703	  0.027030	  0.665667	  0.588407	  0.360962	  0.912806	  0.310624	
2.5135	  0.001545	  0.000000	  0.008763	  0.107521	  0.047980	  0.032712	  0.370288	  0.232641	  0.216122	  0.063537	  0.027043	  0.669034	  0.593979	  0.360806	  0.918098	  0.309094	
2.514	  0.001703	  0.000000	  0.008831	  0.107783	  0.049746	  0.032882	  0.372510	  0.234555	  0.218806	  0.064369	  0.027054	  0.672326	  0.599509	  0.360616	  0.923375	  0.307535	
2.5145	  0.001872	  0.000000	  0.008900	  0.108053	  0.051553	  0.033051	  0.374722	  0.236493	  0.221490	  0.065198	  0.027063	  0.675540	  0.604994	  0.360391	  0.928641	  0.305949	
2.515	  0.002052	  0.000000	  0.008971	  0.108330	  0.053400	  0.033220	  0.376926	  0.238454	  0.224176	  0.066025	  0.027069	  0.678674	  0.610429	  0.360133	  0.933897	  0.304335	
2.5155	  0.002242	  0.000000	  0.009042	  0.108616	  0.055287	  0.033389	  0.379121	  0.240439	  0.226861	  0.066848	  0.027073	  0.681725	  0.615809	  0.359842	  0.939144	  0.302695	
2.516	  0.002444	  0.000000	  0.009115	  0.108910	  0.057215	  0.033559	  0.381306	  0.242449	  0.229545	  0.067667	  0.027074	  0.684693	  0.621130	  0.359520	  0.944383	  0.301029	
2.5165	  0.002658	  0.000000	  0.009189	  0.109212	  0.059184	  0.033728	  0.383482	  0.244483	  0.232230	  0.068483	  0.027074	  0.687573	  0.626387	  0.359167	  0.949615	  0.299339	
2.517	  0.002883	  0.000000	  0.009263	  0.109523	  0.061193	  0.033896	  0.385648	  0.246542	  0.234913	  0.069294	  0.027071	  0.690365	  0.631577	  0.358783	  0.954843	  0.297627	
2.5175	  0.003121	  0.000000	  0.009338	  0.109843	  0.063243	  0.034065	  0.387804	  0.248627	  0.237595	  0.070100	  0.027067	  0.693065	  0.636693	  0.358371	  0.960068	  0.295894	
2.518	  0.003371	  0.000000	  0.009414	  0.110172	  0.065335	  0.034234	  0.389950	  0.250737	  0.240277	  0.070901	  0.027061	  0.695670	  0.641732	  0.357930	  0.965290	  0.294141	
2.5185	  0.003633	  0.000000	  0.009491	  0.110510	  0.067467	  0.034402	  0.392085	  0.252872	  0.242957	  0.071697	  0.027052	  0.698178	  0.646688	  0.357463	  0.970511	  0.292372	
2.519	  0.003908	  0.000000	  0.009568	  0.110857	  0.069640	  0.034570	  0.394209	  0.255032	  0.245635	  0.072486	  0.027042	  0.700587	  0.651558	  0.356968	  0.975732	  0.290588	
2.5195	  0.004197	  0.000000	  0.009646	  0.111214	  0.071855	  0.034738	  0.396323	  0.257218	  0.248313	  0.073269	  0.027030	  0.702892	  0.656336	  0.356448	  0.980955	  0.288791	
2.52	  0.004498	  0.000000	  0.009724	  0.111579	  0.074111	  0.034905	  0.398426	  0.259429	  0.250989	  0.074045	  0.027017	  0.705092	  0.661019	  0.355903	  0.986180	  0.286984	
2.5205	  0.004814	  0.000000	  0.009802	  0.111955	  0.076407	  0.035073	  0.400518	  0.261665	  0.253663	  0.074814	  0.027001	  0.707184	  0.665600	  0.355335	  0.991408	  0.285168	
2.521	  0.005143	  0.000000	  0.009881	  0.112339	  0.078745	  0.035240	  0.402599	  0.263927	  0.256336	  0.075574	  0.026984	  0.709165	  0.670075	  0.354743	  0.996639	  0.283345	
2.5215	  0.005487	  0.000000	  0.009960	  0.112734	  0.081124	  0.035407	  0.404669	  0.266214	  0.259008	  0.076327	  0.026966	  0.711034	  0.674440	  0.354129	  1.001875	  0.281519	
2.522	  0.005846	  0.000000	  0.010039	  0.113137	  0.083544	  0.035573	  0.406730	  0.268526	  0.261679	  0.077070	  0.026946	  0.712789	  0.678689	  0.353495	  1.007116	  0.279690	
2.5225	  0.006219	  0.000000	  0.010119	  0.113551	  0.086005	  0.035740	  0.408779	  0.270863	  0.264349	  0.077805	  0.026924	  0.714427	  0.682817	  0.352841	  1.012363	  0.277861	
2.523	  0.006608	  0.000000	  0.010198	  0.113973	  0.088507	  0.035906	  0.410819	  0.273226	  0.267018	  0.078530	  0.026901	  0.715948	  0.686819	  0.352169	  1.017615	  0.276034	
2.5235	  0.007012	  0.000000	  0.010277	  0.114406	  0.091049	  0.036071	  0.412848	  0.275614	  0.269688	  0.079246	  0.026877	  0.717349	  0.690689	  0.351479	  1.022872	  0.274211	
2.524	  0.007432	  0.000000	  0.010357	  0.114847	  0.093632	  0.036237	  0.414867	  0.278028	  0.272357	  0.079951	  0.026851	  0.718630	  0.694423	  0.350773	  1.028135	  0.272395	
2.5245	  0.007868	  0.000000	  0.010436	  0.115298	  0.096255	  0.036402	  0.416877	  0.280468	  0.275027	  0.080647	  0.026824	  0.719790	  0.698013	  0.350053	  1.033402	  0.270588	
2.525	  0.008321	  0.000000	  0.010515	  0.115757	  0.098918	  0.036566	  0.418877	  0.282934	  0.277699	  0.081331	  0.026795	  0.720828	  0.701456	  0.349319	  1.038673	  0.268791	
2.5255	  0.008790	  0.000000	  0.010594	  0.116226	  0.101621	  0.036730	  0.420869	  0.285427	  0.280371	  0.082005	  0.026765	  0.721743	  0.704745	  0.348572	  1.043948	  0.267007	
2.526	  0.009276	  0.000000	  0.010672	  0.116704	  0.104364	  0.036894	  0.422854	  0.287946	  0.283047	  0.082668	  0.026734	  0.722535	  0.707875	  0.347815	  1.049224	  0.265237	
2.5265	  0.009780	  0.000000	  0.010750	  0.117191	  0.107147	  0.037057	  0.424831	  0.290493	  0.285726	  0.083320	  0.026702	  0.723202	  0.710841	  0.347047	  1.054500	  0.263484	
2.527	  0.010302	  0.000000	  0.010828	  0.117687	  0.109968	  0.037220	  0.426803	  0.293066	  0.288410	  0.083960	  0.026668	  0.723745	  0.713638	  0.346270	  1.059775	  0.261748	
2.5275	  0.010841	  0.000000	  0.010905	  0.118191	  0.112828	  0.037382	  0.428769	  0.295668	  0.291098	  0.084588	  0.026633	  0.724161	  0.716262	  0.345484	  1.065047	  0.260033	
2.528	  0.011399	  0.000000	  0.010982	  0.118704	  0.115727	  0.037543	  0.430731	  0.298298	  0.293793	  0.085204	  0.026597	  0.724451	  0.718707	  0.344692	  1.070313	  0.258340	
2.5285	  0.011976	  0.000000	  0.011059	  0.119225	  0.118664	  0.037704	  0.432688	  0.300956	  0.296494	  0.085807	  0.026559	  0.724614	  0.720970	  0.343893	  1.075571	  0.256670	
2.529	  0.012572	  0.000000	  0.011135	  0.119755	  0.121639	  0.037865	  0.434641	  0.303643	  0.299203	  0.086398	  0.026521	  0.724647	  0.723047	  0.343088	  1.080820	  0.255026	
2.5295	  0.013187	  0.000000	  0.011211	  0.120293	  0.124651	  0.038025	  0.436590	  0.306360	  0.301919	  0.086976	  0.026481	  0.724551	  0.724935	  0.342279	  1.086056	  0.253409	
2.53	  0.013822	  0.000000	  0.011286	  0.120839	  0.127701	  0.038184	  0.438536	  0.309106	  0.304644	  0.087541	  0.026440	  0.724325	  0.726632	  0.341467	  1.091277	  0.251820	
2.5305	  0.014477	  0.000000	  0.011361	  0.121394	  0.130788	  0.038343	  0.440479	  0.311883	  0.307378	  0.088093	  0.026398	  0.723969	  0.728135	  0.340652	  1.096480	  0.250262	
2.531	  0.015152	  0.000000	  0.011436	  0.121957	  0.133912	  0.038502	  0.442420	  0.314690	  0.310121	  0.088631	  0.026355	  0.723484	  0.729444	  0.339835	  1.101663	  0.248736	
2.5315	  0.015848	  0.000000	  0.011510	  0.122529	  0.137072	  0.038660	  0.444360	  0.317528	  0.312875	  0.089156	  0.026310	  0.722870	  0.730557	  0.339018	  1.106822	  0.247242	
2.532	  0.016565	  0.000000	  0.011584	  0.123110	  0.140268	  0.038817	  0.446299	  0.320398	  0.315638	  0.089666	  0.026264	  0.722128	  0.731472	  0.338201	  1.111955	  0.245784	
2.5325	  0.017304	  0.000000	  0.011657	  0.123700	  0.143500	  0.038974	  0.448239	  0.323299	  0.318412	  0.090164	  0.026217	  0.721260	  0.732188	  0.337386	  1.117059	  0.244361	
2.533	  0.018064	  0.000000	  0.011729	  0.124298	  0.146768	  0.039130	  0.450179	  0.326232	  0.321198	  0.090648	  0.026169	  0.720267	  0.732703	  0.336573	  1.122129	  0.242975	
2.5335	  0.018846	  0.000000	  0.011802	  0.124904	  0.150070	  0.039286	  0.452122	  0.329197	  0.323994	  0.091118	  0.026120	  0.719152	  0.733016	  0.335763	  1.127163	  0.241628	
2.534	  0.019651	  0.000000	  0.011873	  0.125520	  0.153407	  0.039441	  0.454067	  0.332196	  0.326802	  0.091574	  0.026069	  0.717916	  0.733125	  0.334957	  1.132157	  0.240321	
2.5345	  0.020478	  0.000000	  0.011945	  0.126144	  0.156778	  0.039595	  0.456015	  0.335227	  0.329622	  0.092017	  0.026017	  0.716561	  0.733030	  0.334156	  1.137108	  0.239054	
2.535	  0.021328	  0.000000	  0.012016	  0.126776	  0.160184	  0.039749	  0.457966	  0.338291	  0.332453	  0.092446	  0.025964	  0.715089	  0.732732	  0.333360	  1.142010	  0.237828	
2.5355	  0.022202	  0.000000	  0.012086	  0.127417	  0.163623	  0.039902	  0.459921	  0.341389	  0.335295	  0.092862	  0.025910	  0.713503	  0.732229	  0.332570	  1.146860	  0.236646	
2.536	  0.023099	  0.000000	  0.012157	  0.128067	  0.167095	  0.040055	  0.461880	  0.344520	  0.338149	  0.093264	  0.025854	  0.711804	  0.731526	  0.331787	  1.151653	  0.235508	
2.5365	  0.024020	  0.000000	  0.012226	  0.128726	  0.170600	  0.040207	  0.463844	  0.347684	  0.341013	  0.093651	  0.025797	  0.709993	  0.730622	  0.331012	  1.156384	  0.234414	
2.537	  0.024965	  0.000000	  0.012296	  0.129393	  0.174138	  0.040358	  0.465812	  0.350882	  0.343888	  0.094026	  0.025738	  0.708072	  0.729521	  0.330246	  1.161048	  0.233367	
2.5375	  0.025935	  0.000000	  0.012365	  0.130069	  0.177708	  0.040510	  0.467784	  0.354113	  0.346774	  0.094386	  0.025678	  0.706044	  0.728226	  0.329489	  1.165638	  0.232368	
2.538	  0.026930	  0.000000	  0.012435	  0.130754	  0.181309	  0.040661	  0.469761	  0.357378	  0.349670	  0.094732	  0.025617	  0.703909	  0.726741	  0.328742	  1.170150	  0.231417	
2.5385	  0.027949	  0.000000	  0.012503	  0.131448	  0.184942	  0.040812	  0.471743	  0.360676	  0.352575	  0.095065	  0.025554	  0.701669	  0.725069	  0.328005	  1.174577	  0.230517	
2.539	  0.028994	  0.000000	  0.012572	  0.132151	  0.188606	  0.040963	  0.473728	  0.364007	  0.355490	  0.095384	  0.025490	  0.699326	  0.723214	  0.327278	  1.178912	  0.229667	
